<svg width="15" height="11" viewBox="0 0 15 11" fill="none" xmlns="http://www.w3.org/2000/svg">
<path d="M12.4185 4.87102C12.109 2.43294 10.0215 0.541687 7.49984 0.541687C5.54767 0.541687 3.85192 1.6821 3.07771 3.48056C1.55621 3.93602 0.416504 5.37252 0.416504 6.91669C0.416504 8.79873 1.89621 10.3273 3.75134 10.4378V10.4584H11.7428V10.4562L11.7498 10.4584C13.3124 10.4584 14.5832 9.1876 14.5832 7.62502C14.5823 6.99001 14.3686 6.37362 13.9762 5.87437C13.5838 5.37512 13.0353 5.02185 12.4185 4.87102ZM4.6665 5.50002H6.7915V3.37502H8.20817V5.50002H10.3332L7.49984 9.04169L4.6665 5.50002Z" fill="white"/>
</svg>
